<?xml version="1.0" encoding="UTF-8"?>
<!DOCTYPE svg PUBLIC "-//W3C//DTD SVG 1.1//EN" "http://www.w3.org/Graphics/SVG/1.1/DTD/svg11.dtd">
<svg xmlns="http://www.w3.org/2000/svg" version="1.1" width="898px" height="649px" style="shape-rendering:geometricPrecision; text-rendering:geometricPrecision; image-rendering:optimizeQuality; fill-rule:evenodd; clip-rule:evenodd" xmlns:xlink="http://www.w3.org/1999/xlink">
<g><path style="opacity:1" fill="#fefefe" d="M -0.5,-0.5 C 298.833,-0.5 598.167,-0.5 897.5,-0.5C 897.5,215.833 897.5,432.167 897.5,648.5C 598.167,648.5 298.833,648.5 -0.5,648.5C -0.5,432.167 -0.5,215.833 -0.5,-0.5 Z"/></g>
<g><path style="opacity:1" fill="#c4e1fc" d="M 437.5,27.5 C 439.017,27.5106 440.184,28.1772 441,29.5C 499.382,97.7598 557.882,165.926 616.5,234C 505.498,234.833 394.498,234.667 283.5,233.5C 334.842,164.804 386.176,96.137 437.5,27.5 Z"/></g>
<g><path style="opacity:1" fill="#0d0f10" d="M 398.5,166.5 C 404.612,165.59 409.946,167.09 414.5,171C 413.888,173.058 412.888,174.891 411.5,176.5C 408.905,174.784 406.071,173.784 403,173.5C 400.615,173.256 398.782,174.089 397.5,176C 397.905,176.945 398.572,177.612 399.5,178C 404.296,178.91 408.963,180.243 413.5,182C 418.116,189.158 416.449,194.492 408.5,198C 403.833,198.667 399.167,198.667 394.5,198C 388.908,196.134 388.075,192.968 392,188.5C 396.781,191.363 401.948,192.196 407.5,191C 408.337,189.989 408.67,188.822 408.5,187.5C 401.4,187.414 395.233,185.081 390,180.5C 389.21,177.366 389.543,174.366 391,171.5C 393.426,169.548 395.926,167.881 398.5,166.5 Z"/></g>
<g><path style="opacity:1" fill="#0b0d0e" d="M 480.5,166.5 C 486.702,165.683 492.369,167.017 497.5,170.5C 496.586,172.664 495.419,174.664 494,176.5C 490.191,173.908 486.024,173.075 481.5,174C 480.167,175.333 480.167,176.667 481.5,178C 487.197,178.92 492.53,180.753 497.5,183.5C 498.655,186.446 498.821,189.446 498,192.5C 497.167,194.667 495.667,196.167 493.5,197C 485.687,199.645 478.354,198.812 471.5,194.5C 472.502,192.49 473.502,190.49 474.5,188.5C 479.111,191.298 484.111,192.132 489.5,191C 490.833,189.667 490.833,188.333 489.5,187C 485.057,186.472 480.723,185.472 476.5,184C 470.386,176.53 471.719,170.696 480.5,166.5 Z"/></g>
<g><path style="opacity:1" fill="#080a0b" d="M 425.5,176.5 C 429.514,176.334 433.514,176.501 437.5,177C 438.333,177.833 439.167,178.667 440,179.5C 441.41,185.379 441.91,191.379 441.5,197.5C 438.606,197.958 436.106,197.291 434,195.5C 427.236,200.576 422.403,199.243 419.5,191.5C 419.876,189.617 420.876,188.117 422.5,187C 426.429,185.971 430.429,185.137 434.5,184.5C 433.73,182.728 432.397,181.728 430.5,181.5C 428.432,181.967 426.432,182.634 424.5,183.5C 421.686,180.633 422.019,178.3 425.5,176.5 Z"/></g>
<g><path style="opacity:1" fill="#0e0f11" d="M 450.5,176.5 C 454.514,176.334 458.514,176.501 462.5,177C 464,178.5 465.5,180 467,181.5C 467.499,186.823 467.666,192.156 467.5,197.5C 464.534,197.89 461.868,197.223 459.5,195.5C 454.892,199.384 450.392,199.384 446,195.5C 445.022,192.331 445.522,189.497 447.5,187C 451.418,185.844 455.418,185.344 459.5,185.5C 459.5,184.5 459.5,183.5 459.5,182.5C 456.08,182.517 452.746,182.683 449.5,183C 446.642,180.246 446.975,178.08 450.5,176.5 Z"/></g>
<g><path style="opacity:1" fill="#b4cfe5" d="M 427.5,189.5 C 429.924,189.192 432.257,189.526 434.5,190.5C 432.643,193.506 430.143,194.172 427,192.5C 426.53,191.423 426.697,190.423 427.5,189.5 Z"/></g>
<g><path style="opacity:1" fill="#b6d1e6" d="M 453.5,189.5 C 455.5,189.5 457.5,189.5 459.5,189.5C 459.67,190.822 459.337,191.989 458.5,193C 456.527,193.495 454.527,193.662 452.5,193.5C 452.433,192.041 452.766,190.708 453.5,189.5 Z"/></g>
<g><path style="opacity:1" fill="#8ec5fa" d="M 645.5,268.5 C 622.789,287.971 615.122,312.304 622.5,341.5C 617.16,345.81 612.994,351.143 610,357.5C 609.667,360.167 609.333,362.833 609,365.5C 591.221,367.477 579.054,376.811 572.5,393.5C 482.5,393.5 392.5,393.5 302.5,393.5C 308.152,366.794 310.319,339.794 309,312.5C 307.919,302.27 306.419,292.104 304.5,282C 298.502,278.106 292.169,274.772 285.5,272C 276.229,269.607 267.229,266.773 258.5,263.5C 264.149,256.905 269.815,250.238 275.5,243.5C 391.833,242.167 508.167,242.167 624.5,243.5C 631.177,252.17 638.177,260.504 645.5,268.5 Z"/></g>
<g><path style="opacity:1" fill="#0c0f0f" d="M 799.5,379.5 C 798.325,379.719 797.325,379.386 796.5,378.5C 787.871,365.127 775.871,360.294 760.5,364C 755.06,346.612 743.06,338.612 724.5,340C 708.899,318.683 689.899,315.016 667.5,329C 661.132,334.736 656.798,341.736 654.5,350C 653.167,350.667 651.833,350.667 650.5,350C 644.084,344.766 636.751,343.099 628.5,345C 618.119,350.094 612.786,358.427 612.5,370C 593.919,371.244 581.752,380.744 576,398.5C 574.231,412.193 578.231,423.86 588,433.5C 588.032,439.646 588.865,445.646 590.5,451.5C 590.137,452.183 589.804,452.85 589.5,453.5C 588.167,453.5 586.833,453.5 585.5,453.5C 584.008,447.62 583.175,441.62 583,435.5C 574.602,426.144 570.435,415.144 570.5,402.5C 571.468,400.393 571.802,398.059 571.5,395.5C 572.338,395.158 572.672,394.492 572.5,393.5C 579.054,376.811 591.221,367.477 609,365.5C 609.333,362.833 609.667,360.167 610,357.5C 612.994,351.143 617.16,345.81 622.5,341.5C 615.122,312.304 622.789,287.971 645.5,268.5C 673.467,250.781 701.134,251.281 728.5,270C 750.494,289.315 757.994,313.148 751,341.5C 756.703,345.865 760.87,351.365 763.5,358C 780.203,356.183 792.537,362.516 800.5,377C 800.257,377.902 799.923,378.735 799.5,379.5 Z"/></g>
<g><path style="opacity:1" fill="#7c7b7b" d="M 258.5,263.5 C 267.229,266.773 276.229,269.607 285.5,272C 292.169,274.772 298.502,278.106 304.5,282C 306.419,292.104 307.919,302.27 309,312.5C 310.319,339.794 308.152,366.794 302.5,393.5C 301.833,393.5 301.5,393.833 301.5,394.5C 300.226,396.993 299.56,399.659 299.5,402.5C 285.052,445.282 257.718,476.949 217.5,497.5C 184.357,475.166 159.691,445.832 143.5,409.5C 127.502,367.582 125.336,324.915 137,281.5C 155.678,270.496 175.844,263.663 197.5,261C 217.929,259.878 238.262,260.712 258.5,263.5 Z"/></g>
<g><path style="opacity:1" fill="#83bce0" d="M 720.5,288.5 C 720.5,290.167 720.5,291.833 720.5,293.5C 719.414,293.62 718.747,294.287 718.5,295.5C 718.543,296.416 718.876,297.083 719.5,297.5C 719.567,298.959 719.234,300.292 718.5,301.5C 709.909,303.423 705.242,308.756 704.5,317.5C 689.795,313.942 676.462,316.609 664.5,325.5C 663.386,324.277 663.219,322.944 664,321.5C 668.667,316.167 673.333,310.833 678,305.5C 679.422,302.97 679.755,300.303 679,297.5C 671.186,290.01 662.019,285.344 651.5,283.5C 655.614,283.251 659.28,281.751 662.5,279C 663.38,277.644 663.714,276.144 663.5,274.5C 657.495,275.498 652.829,278.498 649.5,283.5C 646.121,283.112 642.788,282.445 639.5,281.5C 661.21,258.811 686.377,254.144 715,267.5C 715.907,274.181 716.907,280.848 718,287.5C 718.671,288.252 719.504,288.586 720.5,288.5 Z"/></g>
<g><path style="opacity:1" fill="#c5e0f9" d="M 677.5,267.5 C 682.167,267.5 686.833,267.5 691.5,267.5C 691.5,269.167 691.5,270.833 691.5,272.5C 683.372,272.241 675.372,272.908 667.5,274.5C 667.33,273.178 667.663,272.011 668.5,271C 671.571,269.704 674.571,268.538 677.5,267.5 Z"/></g>
<g><path style="opacity:1" fill="#5ab772" d="M 718.5,301.5 C 719.234,300.292 719.567,298.959 719.5,297.5C 720.5,297.5 721.5,297.5 722.5,297.5C 722.843,295.517 722.176,294.183 720.5,293.5C 720.5,291.833 720.5,290.167 720.5,288.5C 721.169,282.853 721.502,277.186 721.5,271.5C 744.596,288.101 752.929,310.434 746.5,338.5C 740.065,336.23 733.398,335.063 726.5,335C 721.906,328.404 716.073,323.238 709,319.5C 708.294,317.029 708.627,314.695 710,312.5C 712.371,309.794 715.037,307.461 718,305.5C 718.49,304.207 718.657,302.873 718.5,301.5 Z"/></g>
<g><path style="opacity:1" fill="#c6e1f9" d="M 651.5,283.5 C 650.833,283.5 650.167,283.5 649.5,283.5C 652.829,278.498 657.495,275.498 663.5,274.5C 663.714,276.144 663.38,277.644 662.5,279C 659.28,281.751 655.614,283.251 651.5,283.5 Z"/></g>
<g><path style="opacity:1" fill="#66bded" d="M 262.5,283.5 C 280.651,310.855 283.484,339.855 271,370.5C 268.252,375.666 265.252,380.666 262,385.5C 261.83,375.991 261.33,366.658 260.5,357.5C 259.2,352.242 256.034,348.575 251,346.5C 253.563,333.018 249.73,321.851 239.5,313C 233.768,309.156 227.434,307.656 220.5,308.5C 206.584,307.54 197.084,313.54 192,326.5C 191.831,333.524 191.331,340.524 190.5,347.5C 186.869,349.088 184.369,351.754 183,355.5C 182.333,374.5 182.333,393.5 183,412.5C 184.651,417.984 188.151,421.65 193.5,423.5C 191.696,424.162 189.696,424.495 187.5,424.5C 181.482,423.926 175.482,423.259 169.5,422.5C 147.022,382.083 141.855,339.417 154,294.5C 160.025,290.405 166.525,287.238 173.5,285C 203.004,275.519 232.671,275.019 262.5,283.5 Z"/></g>
<g><path style="opacity:1" fill="#4b8bb1" d="M 262.5,283.5 C 271.501,286 280.001,289.667 288,294.5C 293.62,328.754 292.286,362.754 284,396.5C 274.047,433.436 252.381,461.102 219,479.5C 197.826,464.436 181.326,445.436 169.5,422.5C 175.482,423.259 181.482,423.926 187.5,424.5C 189.696,424.495 191.696,424.162 193.5,423.5C 211.76,424.652 230.093,424.819 248.5,424C 254.36,422.141 258.193,418.307 260,412.5C 260.5,394.17 260.667,375.836 260.5,357.5C 261.33,366.658 261.83,375.991 262,385.5C 265.252,380.666 268.252,375.666 271,370.5C 283.484,339.855 280.651,310.855 262.5,283.5 Z"/></g>
<g><path style="opacity:1" fill="#5ab772" d="M 649.5,288.5 C 657.073,289.303 664.073,291.803 670.5,296C 673.644,297.613 674.81,300.113 674,303.5C 669,309.167 664,314.833 659,320.5C 658.481,324.015 658.814,327.348 660,330.5C 657.763,332.647 655.763,334.98 654,337.5C 651.744,332.243 647.91,328.743 642.5,327C 636.509,326.501 630.509,326.334 624.5,326.5C 623.283,312.7 626.45,300.034 634,288.5C 639.266,287.176 644.433,287.176 649.5,288.5 Z"/></g>
<g><path style="opacity:1" fill="#0c1212" d="M 720.5,293.5 C 722.176,294.183 722.843,295.517 722.5,297.5C 721.5,297.5 720.5,297.5 719.5,297.5C 718.876,297.083 718.543,296.416 718.5,295.5C 718.747,294.287 719.414,293.62 720.5,293.5 Z"/></g>
<g><path style="opacity:1" fill="#9af6bb" d="M 649.5,288.5 C 643.511,295.476 639.344,303.476 637,312.5C 634.915,313.647 633.415,312.98 632.5,310.5C 634.943,302.646 638.609,295.479 643.5,289C 645.473,288.505 647.473,288.338 649.5,288.5 Z"/></g>
<g><path style="opacity:1" fill="#132438" d="M 260.5,357.5 C 260.667,375.836 260.5,394.17 260,412.5C 258.193,418.307 254.36,422.141 248.5,424C 230.093,424.819 211.76,424.652 193.5,423.5C 188.151,421.65 184.651,417.984 183,412.5C 182.333,393.5 182.333,374.5 183,355.5C 184.369,351.754 186.869,349.088 190.5,347.5C 191.331,340.524 191.831,333.524 192,326.5C 197.084,313.54 206.584,307.54 220.5,308.5C 227.434,307.656 233.768,309.156 239.5,313C 249.73,321.851 253.563,333.018 251,346.5C 256.034,348.575 259.2,352.242 260.5,357.5 Z"/></g>
<g><path style="opacity:1" fill="#98f4b9" d="M 736.5,306.5 C 738.017,306.511 739.184,307.177 740,308.5C 741.891,316.512 741.891,324.512 740,332.5C 737.833,334 736.333,333.5 735.5,331C 736.358,322.763 736.691,314.596 736.5,306.5 Z"/></g>
<g><path style="opacity:1" fill="#090c0f" d="M 486.5,313.5 C 492.657,312.812 498.324,314.145 503.5,317.5C 502.649,319.882 501.316,321.882 499.5,323.5C 495.95,320.72 491.95,319.886 487.5,321C 486.167,322.333 486.167,323.667 487.5,325C 492.248,326.082 496.915,327.415 501.5,329C 504.394,331.909 505.227,335.409 504,339.5C 500.848,344.322 496.348,346.322 490.5,345.5C 485.327,346.239 480.994,344.739 477.5,341C 478.112,338.942 479.112,337.109 480.5,335.5C 485.111,338.298 490.111,339.132 495.5,338C 496.337,336.989 496.67,335.822 496.5,334.5C 491.645,334.08 486.978,332.913 482.5,331C 480.667,330.5 479.5,329.333 479,327.5C 478.333,324.833 478.333,322.167 479,319.5C 481.114,316.879 483.614,314.879 486.5,313.5 Z"/></g>
<g><path style="opacity:1" fill="#040507" d="M 396.5,314.5 C 402.509,314.334 408.509,314.501 414.5,315C 421.854,317.206 424.354,322.039 422,329.5C 420.332,333.165 417.499,335.332 413.5,336C 410.518,336.498 407.518,336.665 404.5,336.5C 403.527,338.948 403.194,341.615 403.5,344.5C 401.167,344.5 398.833,344.5 396.5,344.5C 396.5,334.5 396.5,324.5 396.5,314.5 Z"/></g>
<g><path style="opacity:1" fill="#3e576e" d="M 396.5,314.5 C 396.5,324.5 396.5,334.5 396.5,344.5C 398.833,344.5 401.167,344.5 403.5,344.5C 403.194,341.615 403.527,338.948 404.5,336.5C 404.5,339.5 404.5,342.5 404.5,345.5C 401.5,345.5 398.5,345.5 395.5,345.5C 395.172,334.986 395.506,324.653 396.5,314.5 Z"/></g>
<g><path style="opacity:1" fill="#66bcec" d="M 212.5,320.5 C 232.578,317.245 240.912,325.578 237.5,345.5C 226.167,345.5 214.833,345.5 203.5,345.5C 203.334,340.156 203.501,334.823 204,329.5C 205.688,325.315 208.521,322.315 212.5,320.5 Z"/></g>
<g><path style="opacity:1" fill="#8ac1f4" d="M 404.5,321.5 C 407.187,321.336 409.854,321.503 412.5,322C 415.054,324.269 415.054,326.602 412.5,329C 409.854,329.497 407.187,329.664 404.5,329.5C 404.5,326.833 404.5,324.167 404.5,321.5 Z"/></g>
<g><path style="opacity:1" fill="#06090c" d="M 430.5,323.5 C 434.182,323.335 437.848,323.501 441.5,324C 443.329,324.273 444.829,325.107 446,326.5C 447.41,332.379 447.91,338.379 447.5,344.5C 444.606,344.958 442.106,344.291 440,342.5C 435.819,345.864 431.485,346.197 427,343.5C 424.523,339.22 425.356,335.72 429.5,333C 433.211,332.825 436.878,332.325 440.5,331.5C 439.73,329.728 438.397,328.728 436.5,328.5C 434.432,328.967 432.432,329.634 430.5,330.5C 429.5,329.167 428.5,327.833 427.5,326.5C 428.77,325.712 429.77,324.712 430.5,323.5 Z"/></g>
<g><path style="opacity:1" fill="#0b0e11" d="M 456.5,323.5 C 460.514,323.334 464.514,323.501 468.5,324C 469.667,325.167 470.833,326.333 472,327.5C 473.404,333.044 473.904,338.71 473.5,344.5C 471.167,344.5 468.833,344.5 466.5,344.5C 466.649,343.448 466.483,342.448 466,341.5C 462.95,345.13 459.117,346.297 454.5,345C 449.006,340.491 449.339,336.491 455.5,333C 458.817,332.502 462.15,332.335 465.5,332.5C 465.542,330.151 464.375,328.818 462,328.5C 459.567,329.479 457.067,330.145 454.5,330.5C 454.579,329.07 454.246,327.736 453.5,326.5C 454.34,325.265 455.34,324.265 456.5,323.5 Z"/></g>
<g><path style="opacity:1" fill="#80b7da" d="M 625.5,331.5 C 631.176,331.334 636.843,331.501 642.5,332C 647.379,334.675 650.046,338.509 650.5,343.5C 642.91,339.453 634.91,338.453 626.5,340.5C 626.037,337.518 625.704,334.518 625.5,331.5 Z"/></g>
<g><path style="opacity:1" fill="#81b4e1" d="M 433.5,336.5 C 435.924,336.192 438.257,336.526 440.5,337.5C 438.643,340.506 436.143,341.172 433,339.5C 432.53,338.423 432.697,337.423 433.5,336.5 Z"/></g>
<g><path style="opacity:1" fill="#85bae9" d="M 458.5,336.5 C 460.924,336.192 463.257,336.526 465.5,337.5C 463.929,340.093 461.596,341.093 458.5,340.5C 458.5,339.167 458.5,337.833 458.5,336.5 Z"/></g>
<g><path style="opacity:1" fill="#65bbeb" d="M 216.5,360.5 C 230.548,360.043 236.714,366.71 235,380.5C 233.907,382.349 232.574,384.016 231,385.5C 230.667,391.167 230.333,396.833 230,402.5C 227.824,407.689 223.991,409.855 218.5,409C 216.43,408.052 214.93,406.552 214,404.5C 213.667,398.5 213.333,392.5 213,386.5C 204.764,376.519 205.93,367.853 216.5,360.5 Z"/></g>
<g><path style="opacity:1" fill="#acacad" d="M 799.5,379.5 C 799.833,380.833 800.167,382.167 800.5,383.5C 797.695,385.756 798.028,387.423 801.5,388.5C 801.5,390.167 801.5,391.833 801.5,393.5C 800.504,393.414 799.671,393.748 799,394.5C 797.166,401.675 793.666,407.842 788.5,413C 797.385,427.935 796.051,441.935 784.5,455C 777.194,460.769 768.86,463.769 759.5,464C 754.901,477.305 745.568,482.972 731.5,481C 726.737,478.721 722.404,475.888 718.5,472.5C 714.393,476.431 710.06,480.264 705.5,484C 687.786,493.122 671.953,490.622 658,476.5C 644.525,488.021 632.192,487.021 621,473.5C 620.025,470.24 618.858,467.073 617.5,464C 612.137,463.736 606.803,463.236 601.5,462.5C 600.584,462.543 599.917,462.876 599.5,463.5C 598.167,462.833 596.833,462.167 595.5,461.5C 595.5,460.167 595.5,458.833 595.5,457.5C 594.167,457.5 592.833,457.5 591.5,457.5C 590.4,456.395 589.733,455.062 589.5,453.5C 589.804,452.85 590.137,452.183 590.5,451.5C 588.865,445.646 588.032,439.646 588,433.5C 578.231,423.86 574.231,412.193 576,398.5C 581.752,380.744 593.919,371.244 612.5,370C 612.786,358.427 618.119,350.094 628.5,345C 636.751,343.099 644.084,344.766 650.5,350C 651.833,350.667 653.167,350.667 654.5,350C 656.798,341.736 661.132,334.736 667.5,329C 689.899,315.016 708.899,318.683 724.5,340C 743.06,338.612 755.06,346.612 760.5,364C 775.871,360.294 787.871,365.127 796.5,378.5C 797.325,379.386 798.325,379.719 799.5,379.5 Z"/></g>
<g><path style="opacity:1" fill="#0a0a0a" d="M 636.5,380.5 C 645.173,380.334 653.84,380.5 662.5,381C 663.833,382.333 663.833,383.667 662.5,385C 627.165,380.434 614.999,395.267 626,429.5C 628.812,433.662 632.645,436.495 637.5,438C 646.16,438.5 654.827,438.666 663.5,438.5C 663.5,439.833 663.5,441.167 663.5,442.5C 653.828,442.666 644.161,442.5 634.5,442C 628.392,439.559 623.892,435.392 621,429.5C 619.4,418.239 619.067,406.906 620,395.5C 623.567,388.312 629.067,383.312 636.5,380.5 Z"/></g>
<g><path style="opacity:1" fill="#101010" d="M 684.5,380.5 C 697.006,379.833 705.839,385.167 711,396.5C 711.667,406.5 711.667,416.5 711,426.5C 704.968,440.931 694.468,445.765 679.5,441C 672.613,437.113 668.447,431.279 667,423.5C 666.083,414.091 666.416,404.758 668,395.5C 671.19,387.843 676.69,382.843 684.5,380.5 Z"/></g>
<g><path style="opacity:1" fill="#0c0c0c" d="M 725.5,424.5 C 724.514,428.97 724.181,433.637 724.5,438.5C 733.833,438.5 743.167,438.5 752.5,438.5C 753.434,439.568 753.768,440.901 753.5,442.5C 742.5,442.5 731.5,442.5 720.5,442.5C 720.334,435.492 720.5,428.492 721,421.5C 725.012,413.496 731.512,409.662 740.5,410C 748.095,406.527 750.595,400.694 748,392.5C 746.332,388.835 743.499,386.668 739.5,386C 733.5,385.667 727.5,385.333 721.5,385C 720.483,383.951 720.316,382.784 721,381.5C 729.267,379.876 737.434,380.376 745.5,383C 752.844,387.536 755.344,394.036 753,402.5C 752.152,405.698 750.652,408.531 748.5,411C 742.911,414.196 736.911,416.196 730.5,417C 727.758,418.886 726.091,421.386 725.5,424.5 Z"/></g>
<g><path style="opacity:1" fill="#222222" d="M 800.5,383.5 C 803.972,384.577 804.305,386.244 801.5,388.5C 798.028,387.423 797.695,385.756 800.5,383.5 Z"/></g>
<g><path style="opacity:1" fill="#acacac" d="M 683.5,385.5 C 693.969,384.142 701.469,388.142 706,397.5C 706.926,407.907 706.592,418.241 705,428.5C 697.594,439.305 688.428,441.138 677.5,434C 674.537,431.125 672.704,427.625 672,423.5C 671.333,415.167 671.333,406.833 672,398.5C 674.273,392.73 678.106,388.397 683.5,385.5 Z"/></g>
<g><path style="opacity:1" fill="#d3e9fc" d="M 301.5,394.5 C 301.5,393.833 301.833,393.5 302.5,393.5C 392.5,393.5 482.5,393.5 572.5,393.5C 572.672,394.492 572.338,395.158 571.5,395.5C 481.668,394.501 391.668,394.167 301.5,394.5 Z"/></g>
<g><path style="opacity:1" fill="#0d0e11" d="M 801.5,393.5 C 802.634,395.966 802.801,398.633 802,401.5C 799.632,405.733 797.132,409.9 794.5,414C 799.499,424.955 799.832,436.122 795.5,447.5C 788.312,460.323 777.312,467.657 762.5,469.5C 754.408,484.031 742.408,488.864 726.5,484C 723.659,482.414 720.993,480.58 718.5,478.5C 706.007,492.575 690.674,497.075 672.5,492C 666.832,489.821 661.832,486.654 657.5,482.5C 648.994,488.584 639.661,490.084 629.5,487C 621.693,483.034 616.693,476.868 614.5,468.5C 609.464,468.938 604.631,468.272 600,466.5C 599.517,465.552 599.351,464.552 599.5,463.5C 599.917,462.876 600.584,462.543 601.5,462.5C 606.803,463.236 612.137,463.736 617.5,464C 618.858,467.073 620.025,470.24 621,473.5C 632.192,487.021 644.525,488.021 658,476.5C 671.953,490.622 687.786,493.122 705.5,484C 710.06,480.264 714.393,476.431 718.5,472.5C 722.404,475.888 726.737,478.721 731.5,481C 745.568,482.972 754.901,477.305 759.5,464C 768.86,463.769 777.194,460.769 784.5,455C 796.051,441.935 797.385,427.935 788.5,413C 793.666,407.842 797.166,401.675 799,394.5C 799.671,393.748 800.504,393.414 801.5,393.5 Z"/></g>
<g><path style="opacity:1" fill="#fdfdfe" d="M 301.5,394.5 C 391.668,394.167 481.668,394.501 571.5,395.5C 571.802,398.059 571.468,400.393 570.5,402.5C 480.167,402.5 389.833,402.5 299.5,402.5C 299.56,399.659 300.226,396.993 301.5,394.5 Z"/></g>
<g><path style="opacity:1" fill="#5daaf9" d="M 299.5,402.5 C 389.833,402.5 480.167,402.5 570.5,402.5C 570.435,415.144 574.602,426.144 583,435.5C 583.175,441.62 584.008,447.62 585.5,453.5C 586.833,453.5 588.167,453.5 589.5,453.5C 589.733,455.062 590.4,456.395 591.5,457.5C 592.833,457.5 594.167,457.5 595.5,457.5C 595.5,458.833 595.5,460.167 595.5,461.5C 596.833,462.167 598.167,462.833 599.5,463.5C 599.351,464.552 599.517,465.552 600,466.5C 604.631,468.272 609.464,468.938 614.5,468.5C 616.693,476.868 621.693,483.034 629.5,487C 639.661,490.084 648.994,488.584 657.5,482.5C 661.832,486.654 666.832,489.821 672.5,492C 690.674,497.075 706.007,492.575 718.5,478.5C 720.993,480.58 723.659,482.414 726.5,484C 742.408,488.864 754.408,484.031 762.5,469.5C 777.312,467.657 788.312,460.323 795.5,447.5C 795.491,449.308 795.991,450.975 797,452.5C 824.08,485.013 850.914,517.68 877.5,550.5C 736.002,551.833 594.168,552.5 452,552.5C 310,552.5 168.166,552.167 26.5,551.5C 64.7747,503.56 103.775,456.226 143.5,409.5C 159.691,445.832 184.357,475.166 217.5,497.5C 257.718,476.949 285.052,445.282 299.5,402.5 Z"/></g>
<g><path style="opacity:1" fill="#6c6c6c" d="M 725.5,424.5 C 725.5,428.833 725.5,433.167 725.5,437.5C 734.682,437.173 743.682,437.507 752.5,438.5C 743.167,438.5 733.833,438.5 724.5,438.5C 724.181,433.637 724.514,428.97 725.5,424.5 Z"/></g>
<g><path style="opacity:1" fill="#0d0f12" d="M 591.5,457.5 C 592.833,457.5 594.167,457.5 595.5,457.5C 595.5,458.833 595.5,460.167 595.5,461.5C 594.167,461.5 592.833,461.5 591.5,461.5C 591.5,460.167 591.5,458.833 591.5,457.5 Z"/></g>
<g><path style="opacity:1" fill="#e9e9e9" d="M 625.5,461.5 C 628.934,462.115 630.934,464.281 631.5,468C 630.667,470.5 629.167,471 627,469.5C 625.748,466.986 625.248,464.32 625.5,461.5 Z"/></g>
<g><path style="opacity:1" fill="#eaeaea" d="M 769.5,369.5 C 785.755,370.588 793.255,379.255 792,395.5C 790.587,398.661 788.92,401.661 787,404.5C 784.022,406.311 781.522,408.644 779.5,411.5C 790.364,425.001 790.03,438.168 778.5,451C 771.312,455.894 763.312,457.894 754.5,457C 751.646,472.421 742.979,477.421 728.5,472C 725,467.833 721.5,463.667 718,459.5C 713.904,466.499 708.738,472.666 702.5,478C 694.002,482.729 685.002,483.729 675.5,481C 668.427,477.262 662.594,472.096 658,465.5C 654.088,470.083 649.588,473.917 644.5,477C 641.5,477.667 638.5,477.667 635.5,477C 633.963,475.89 633.297,474.39 633.5,472.5C 638.449,473.041 643.116,472.208 647.5,470C 650.346,465.821 653.846,462.321 658,459.5C 662.593,463.798 667.093,468.298 671.5,473C 678.188,477.323 685.521,478.656 693.5,477C 697.51,475.657 701.01,473.491 704,470.5C 708.28,464.244 712.78,458.244 717.5,452.5C 722.295,457.466 726.961,462.632 731.5,468C 736.966,470.548 741.8,469.714 746,465.5C 747.579,461.341 749.079,457.174 750.5,453C 761.818,454.894 771.318,451.727 779,443.5C 782.301,437.922 783.301,431.922 782,425.5C 779.286,420.568 776.453,415.735 773.5,411C 776.321,406.846 779.821,403.346 784,400.5C 790.831,385.33 785.997,376.497 769.5,374C 768.272,372.51 768.272,371.01 769.5,369.5 Z"/></g>
<g><path style="opacity:1" fill="#06090e" d="M 478.5,470.5 C 483.179,470.334 487.845,470.501 492.5,471C 498.324,472.818 498.657,475.652 493.5,479.5C 489.339,477.815 485.006,477.148 480.5,477.5C 480.5,478.833 480.5,480.167 480.5,481.5C 485.598,482.191 490.598,483.358 495.5,485C 499.432,489.596 499.432,494.263 495.5,499C 487.833,502.333 480.167,502.333 472.5,499C 471.707,496.388 472.54,494.222 475,492.5C 479.541,495.088 484.374,495.921 489.5,495C 491.013,492.546 490.346,490.879 487.5,490C 482.424,490.086 477.924,488.586 474,485.5C 471.074,479.085 472.574,474.085 478.5,470.5 Z"/></g>
<g><path style="opacity:1" fill="#1d3750" d="M 406.5,470.5 C 409.5,470.5 412.5,470.5 415.5,470.5C 415.5,480.833 415.5,491.167 415.5,501.5C 412.5,501.5 409.5,501.5 406.5,501.5C 406.5,491.167 406.5,480.833 406.5,470.5 Z"/></g>
<g><path style="opacity:1" fill="#000000" d="M 407.5,471.5 C 409.833,471.5 412.167,471.5 414.5,471.5C 414.5,481.167 414.5,490.833 414.5,500.5C 412.167,500.5 409.833,500.5 407.5,500.5C 407.5,490.833 407.5,481.167 407.5,471.5 Z"/></g>
<g><path style="opacity:1" fill="#060a0f" d="M 427.5,479.5 C 432.561,478.665 436.895,479.999 440.5,483.5C 441.457,489.439 441.79,495.439 441.5,501.5C 439.167,501.5 436.833,501.5 434.5,501.5C 434.557,497.867 433.557,497.7 431.5,501C 423.242,503.718 419.409,500.885 420,492.5C 420.833,491.667 421.667,490.833 422.5,490C 426.429,488.971 430.429,488.137 434.5,487.5C 434.291,486.914 433.957,486.414 433.5,486C 429.889,485.87 426.389,485.703 423,485.5C 422.5,484.5 422,483.5 421.5,482.5C 423.444,481.199 425.444,480.199 427.5,479.5 Z"/></g>
<g><path style="opacity:1" fill="#070b10" d="M 466.5,485.5 C 466.5,490.5 466.5,495.5 466.5,500.5C 463.856,500.84 461.523,500.173 459.5,498.5C 458.893,498.624 458.56,498.957 458.5,499.5C 453.468,502.643 448.968,501.976 445,497.5C 444.313,495.08 444.813,492.913 446.5,491C 450.619,489.149 454.952,487.982 459.5,487.5C 458.473,485.976 456.973,485.309 455,485.5C 453.293,485.648 451.626,485.982 450,486.5C 447.955,485.362 447.288,483.695 448,481.5C 452.326,479.686 456.826,479.186 461.5,480C 464.079,481.076 465.746,482.909 466.5,485.5 Z"/></g>
<g><path style="opacity:1" fill="#2b5074" d="M 466.5,485.5 C 467.488,490.64 467.821,495.974 467.5,501.5C 464.145,501.909 461.145,501.242 458.5,499.5C 458.56,498.957 458.893,498.624 459.5,498.5C 461.523,500.173 463.856,500.84 466.5,500.5C 466.5,495.5 466.5,490.5 466.5,485.5 Z"/></g>
<g><path style="opacity:1" fill="#5296da" d="M 427.5,492.5 C 429.924,492.192 432.257,492.526 434.5,493.5C 432.575,496.172 429.908,497.172 426.5,496.5C 426.433,495.041 426.766,493.708 427.5,492.5 Z"/></g>
<g><path style="opacity:1" fill="#579ee5" d="M 453.5,492.5 C 455.5,492.5 457.5,492.5 459.5,492.5C 459.67,493.822 459.337,494.989 458.5,496C 456.527,496.495 454.527,496.662 452.5,496.5C 452.433,495.041 452.766,493.708 453.5,492.5 Z"/></g>
<g><path style="opacity:1" fill="#77b9fb" d="M 877.5,550.5 C 878.478,550.811 879.145,551.478 879.5,552.5C 594.501,553.667 309.501,553.833 24.5,553C 25.0442,552.283 25.7109,551.783 26.5,551.5C 168.166,552.167 310,552.5 452,552.5C 594.168,552.5 736.002,551.833 877.5,550.5 Z"/></g>
</svg>
